<?xml version="1.0" encoding="utf-8"?>
<!-- Generator: Adobe Illustrator 24.2.1, SVG Export Plug-In . SVG Version: 6.00 Build 0)  -->
<svg version="1.1" id="Layer_1" focusable="false" xmlns="http://www.w3.org/2000/svg" xmlns:xlink="http://www.w3.org/1999/xlink"
	 x="0px" y="0px" viewBox="0 0 496 512" style="enable-background:new 0 0 496 512;" xml:space="preserve">
<style type="text/css">
	.st0{fill:#FFFFFF;}
</style>
<path class="st0" d="M245.8,214.9l-33.2,17.3c-9.4-19.6-25.2-19.9-27.5-19.9c-22.1,0-33.2,14.6-33.2,43.8c0,23.6,9.2,43.8,33.2,43.8
	c14.5,0,24.6-7.1,30.6-21.3l30.6,15.5c-6.2,11.5-25.7,39-65.1,39c-22.6,0-74-10.3-74-77c0-58.7,43-77.1,72.6-77.1
	C210.6,179,232.5,191,245.8,214.9L245.8,214.9z M388.9,214.9l-32.8,17.3c-9.5-19.8-25.7-19.9-27.9-19.9c-22.1,0-33.2,14.6-33.2,43.8
	c0,23.5,9.2,43.8,33.2,43.8c14.5,0,24.6-7.1,30.5-21.3l31,15.5c-2.1,3.8-21.4,39-65.1,39c-22.7,0-74-9.9-74-77
	c0-58.7,43-77.1,72.6-77.1C354,179,375.9,191,388.9,214.9L388.9,214.9z M247.6,8.1C104.7,8.1,0,123.1,0,256
	c0,138.5,113.6,248,247.6,248C377.5,504,496,403.2,496,256C496,118.2,389.4,8,247.6,8.1L247.6,8.1z M248.4,458.9
	c-112.5,0-203.7-93-203.7-202.8c0-105.4,85.4-203.3,203.7-203.3c112.5,0,202.8,89.5,202.8,203.3
	C451.3,377.7,351.6,458.9,248.4,458.9L248.4,458.9z"/>
</svg>
