<?xml version="1.0" encoding="utf-8"?>
<!-- Generator: Adobe Illustrator 24.2.1, SVG Export Plug-In . SVG Version: 6.00 Build 0)  -->
<svg version="1.1" id="Layer_1" focusable="false" xmlns="http://www.w3.org/2000/svg" xmlns:xlink="http://www.w3.org/1999/xlink"
	 x="0px" y="0px" viewBox="0 0 496 512" style="enable-background:new 0 0 496 512;" xml:space="preserve">
<style type="text/css">
	.st0{fill:#FFFFFF;}
</style>
<path class="st0" d="M247.6,8C387.4,8,496,115.9,496,256c0,147.2-118.5,248-248.4,248C113.1,504,0,393.2,0,256
	C0,123.1,104.7,8,247.6,8z M55.8,189.1c-7.4,20.4-11.1,42.7-11.1,66.9c0,110.9,92.1,202.4,203.7,202.4
	c122.4,0,177.2-101.8,178.5-104.1l-93.4-41.6c-7.7,37.1-41.2,53-68.2,55.4v38.1h-28.8V368c-27.5-0.3-52.6-10.2-75.3-29.7l34.1-34.5
	c31.7,29.4,86.4,31.8,86.4-2.2c0-6.2-2.2-11.2-6.6-15.1C260.9,280.5,273.3,286.4,55.8,189.1L55.8,189.1z M248.4,52.3
	c-38.4,0-112.4,8.7-170.5,93l94.8,42.5c10-31.3,40.4-42.9,63.8-44.3v-38.1h28.8v38.1c22.7,1.2,43.4,8.9,62,23L295,199.7
	c-42.7-29.9-83.5-8-70,11.1c53.4,24.1,43.8,19.8,93,41.6l127.1,56.7c4.1-17.4,6.2-35.1,6.2-53.1c0-57-19.8-105-59.3-143.9
	C352.7,72.2,304.8,52.3,248.4,52.3L248.4,52.3z"/>
</svg>
